# xmcd
#
# Track frame offsets:
#	183
#	21258
#	48503
#	65235
#	89088
#	118395
#	140883
#	167803
#	190503
#	230808
#	259983
#	284423
#	312420
#
# Disc length: 4641 seconds
#
# Revision: 1
# Processed by: cddbd v1.4b42PL1 Copyright (c) Steve Scherf et al.
# Submitted via: audiograbber 1.80
#
DISCID=d6121f0d
DTITLE=John Hiatt - Far Gone - Live In U.S.A. ´88
DYEAR=1900
DGENRE=
TTITLE0=Drive South
TTITLE1=Trudy And Dave
TTITLE2=Tennessee Plates
TTITLE3=Icy Blue Eyes
TTITLE4=Alone In The Dark
TTITLE5=Real Fine Love
TTITLE6=Ride Along
TTITLE7=Thank You Girl
TTITLE8=Stood Up
TTITLE9=Thing Called Love
TTITLE10=Have A Little Faith In Me
TTITLE11=Slow Turning
TTITLE12=Where´s The Next One Coming From ?
EXTD=
EXTT0=
EXTT1=
EXTT2=
EXTT3=
EXTT4=
EXTT5=
EXTT6=
EXTT7=
EXTT8=
EXTT9=
EXTT10=
EXTT11=
EXTT12=
PLAYORDER=
